# This file uses centimeters as units for non-parametric coordinates.

mtllib paredao A.mtl
g default
v -2.985216 0.059168 13.021011
v 7.029675 0.059168 13.021011
v -2.985216 11.809746 13.021011
v 7.029675 11.809746 13.021011
v -2.985216 11.809746 -12.998424
v 7.029675 11.809746 -12.998424
v -2.985216 0.059168 -12.998425
v 7.029675 0.059168 -12.998425
v -2.985216 11.809746 -4.988291
v 7.029675 11.809746 -4.988291
v 7.029675 0.059168 -4.988291
v -2.985216 0.059168 -4.988291
v -7.009560 0.059168 -4.988291
v -7.009560 11.809746 -4.988291
v -7.009560 0.059168 13.021011
v -7.009560 11.809746 13.021011
vt 0.157155 0.248656
vt 0.980422 0.100481
vt 0.906263 0.770880
vt 0.943782 0.379166
vt 0.297991 0.687813
vt 0.298697 0.770880
vt 0.028571 0.516249
vt 0.032041 0.688803
vt 0.028465 0.899564
vt 0.151124 0.222055
vt 0.406425 0.100481
vt 0.406425 0.222055
vt 0.348882 0.687624
vt 0.406425 0.270908
vt 0.113961 0.248512
vt 0.943614 0.325228
vt 0.309863 0.327202
vt 0.310031 0.381141
vt 0.946821 0.685398
vt 0.946349 0.558753
vt 0.348410 0.560979
vt 0.297520 0.561168
vt 0.029550 0.222055
vt 0.031570 0.562158
vt 0.113602 0.356003
vt 0.156796 0.356148
vt 0.264287 0.356506
vt 0.264646 0.249015
vt 0.980422 0.222055
vt 0.980422 0.270908
vt 0.944201 0.513396
vt 0.310450 0.515371
vt 0.028153 0.382019
vt 0.029550 0.100481
vt 0.028465 0.770880
vt 0.151124 0.100481
vt 0.298697 0.899564
vt 0.906263 0.899565
vn 0.000000 0.000000 1.000000
vn 0.000000 0.000000 1.000000
vn 0.000000 0.000000 1.000000
vn 0.000000 0.000000 1.000000
vn 0.000000 1.000000 0.000000
vn 0.000000 1.000000 0.000000
vn 0.000000 1.000000 0.000000
vn 0.000000 1.000000 0.000000
vn 0.000000 0.000000 -1.000000
vn 0.000000 0.000000 -1.000000
vn 0.000000 0.000000 -1.000000
vn 0.000000 0.000000 -1.000000
vn 0.000000 -1.000000 0.000000
vn 0.000000 -1.000000 0.000000
vn 0.000000 -1.000000 0.000000
vn 0.000000 -1.000000 0.000000
vn 1.000000 -0.000000 0.000000
vn 1.000000 -0.000000 0.000000
vn 1.000000 -0.000000 0.000000
vn 1.000000 -0.000000 0.000000
vn -1.000000 -0.000000 0.000000
vn -1.000000 -0.000000 0.000000
vn -1.000000 -0.000000 0.000000
vn -1.000000 -0.000000 0.000000
vn 0.000000 1.000000 0.000000
vn 0.000000 1.000000 0.000000
vn 1.000000 -0.000000 0.000000
vn 1.000000 -0.000000 0.000000
vn 0.000000 -1.000000 0.000000
vn 0.000000 -1.000000 0.000000
vn -1.000000 0.000000 0.000000
vn -1.000000 0.000000 0.000000
vn -1.000000 0.000000 0.000000
vn -1.000000 0.000000 0.000000
vn 0.000000 0.000000 -1.000000
vn 0.000000 0.000000 -1.000000
vn 0.000000 0.000000 -1.000000
vn 0.000000 0.000000 -1.000000
vn 0.000000 -1.000000 0.000000
vn 0.000000 -1.000000 0.000000
vn 0.000000 -1.000000 0.000000
vn 0.000000 -1.000000 0.000000
vn 0.000000 0.000000 1.000000
vn 0.000000 0.000000 1.000000
vn 0.000000 0.000000 1.000000
vn 0.000000 0.000000 1.000000
vn 0.000000 1.000000 0.000000
vn 0.000000 1.000000 0.000000
vn 0.000000 1.000000 0.000000
vn 0.000000 1.000000 0.000000
s off
g pCube1
usemtl initialShadingGroup
f 1/1/1 2/28/2 4/27/3 3/26/4
s 1
f 9/18/5 10/32/6 6/7/7 5/33/8
s off
f 5/23/9 6/34/10 8/36/11 7/10/12
s 2
f 7/10/13 8/36/14 11/11/15 12/12/16
s 3
f 10/6/17 11/37/18 8/9/19 6/35/20
s off
f 7/24/21 12/22/22 9/5/23 5/8/24
s 1
f 3/4/25 4/31/26 10/32/6 9/18/5
s 3
f 2/38/27 11/37/18 10/6/17 4/3/28
s 2
f 12/12/16 11/11/15 2/2/29 1/29/30
s off
f 14/13/31 13/21/32 15/20/33 16/19/34
f 9/5/35 12/22/36 13/21/37 14/13/38
f 12/12/39 1/29/40 15/30/41 13/14/42
f 1/1/43 3/26/44 16/25/45 15/15/46
f 3/4/47 9/18/48 14/17/49 16/16/50
