# This file uses centimeters as units for non-parametric coordinates.

mtllib Bush_Low.mtl
g default
v -1.215893 -0.790447 0.717557
v 1.215893 -0.790447 0.717557
v -1.215893 0.580146 0.717557
v 1.215893 0.580146 0.717557
v -1.215893 0.580146 -0.717557
v 1.215893 0.580146 -0.717557
v -1.215893 -0.790447 -0.717557
v 1.215893 -0.790447 -0.717557
v -1.535756 0.732765 -0.000000
v 1.535756 0.000000 -0.906323
v 0.000000 -0.790449 -0.906323
v -1.535756 -0.000000 -0.906323
v 1.535756 -0.790449 0.000000
v -1.535756 -0.790449 0.000000
v -0.000000 -0.790449 0.906323
v 1.535756 0.000000 0.906323
v 0.000000 0.732765 0.906323
v -1.535756 0.000000 0.906323
v 1.535756 0.732765 -0.000000
v 0.000000 0.732765 -0.906323
v -0.000000 0.000000 1.237785
v -0.000000 1.000753 0.000000
v -0.000000 -0.000000 -1.237785
v -0.000000 -0.790452 0.000000
v 2.097416 0.000000 -0.000000
v -2.097416 0.000000 -0.000000
v -1.430056 0.344132 -0.843945
v 1.430056 0.344132 -0.843945
v 0.837308 0.000000 -1.154614
v 1.430056 -0.344132 -0.843945
v 0.721246 -0.790448 -0.843945
v 0.000000 -0.399510 -1.154614
v -0.721246 -0.790448 -0.843945
v -1.430056 -0.344132 -0.843945
v 0.000000 -0.790451 -0.494136
v -0.837308 -0.790451 0.000000
v -1.430056 -0.790448 -0.425642
v 1.430056 -0.790448 -0.425642
v 0.837308 -0.790451 0.000000
v 1.430056 -0.790448 0.425642
v 0.000000 -0.790451 0.494136
v -1.430056 -0.790448 0.425642
v 1.956483 -0.399510 0.000000
v 1.956483 0.000000 0.494136
v 1.956483 0.000000 -0.494136
v 1.956483 0.399510 -0.000000
v -1.956483 -0.399510 0.000000
v -1.956483 -0.000000 -0.494136
v -1.956483 0.000000 0.494136
v -1.956483 0.399510 -0.000000
v -0.721246 -0.790448 0.843945
v 0.000000 -0.399510 1.154614
v -0.837308 0.000000 1.154614
v -1.430056 -0.344132 0.843945
v 0.721246 -0.790448 0.843945
v 1.430056 -0.344132 0.843945
v 0.837308 0.000000 1.154614
v 1.430056 0.344132 0.843945
v 0.721246 0.682331 0.843945
v 0.000000 0.399510 1.154614
v -0.721246 0.682331 0.843945
v -1.430056 0.344132 0.843945
v 0.000000 0.933508 0.494136
v -0.837308 0.933508 -0.000000
v -1.430056 0.682331 0.425642
v 1.430056 0.682331 0.425642
v 0.837308 0.933508 -0.000000
v 1.430056 0.682331 -0.425642
v 0.721246 0.682331 -0.843945
v 0.000000 0.933508 -0.494136
v -0.721246 0.682331 -0.843945
v -1.430056 0.682331 -0.425642
v 0.000000 0.399510 -1.154614
v -0.837308 0.000000 -1.154614
v -0.779277 -0.371821 1.076335
v 0.779277 -0.371821 1.076335
v 0.779277 0.371821 1.076335
v -0.779277 0.371821 1.076335
v -0.779277 0.870220 0.459889
v 0.779277 0.870220 0.459889
v 0.779277 0.870220 -0.459889
v -0.779277 0.870220 -0.459889
v -0.779277 0.371821 -1.076335
v 0.779277 0.371821 -1.076335
v 0.779277 -0.371821 -1.076335
v -0.779277 -0.371821 -1.076335
v -0.779277 -0.790450 -0.459889
v 0.779277 -0.790450 -0.459889
v 0.779277 -0.790450 0.459889
v -0.779277 -0.790450 0.459889
v 1.823840 -0.371821 0.459889
v 1.823840 -0.371821 -0.459889
v 1.823840 0.371821 -0.459889
v 1.823840 0.371821 0.459889
v -1.823840 -0.371821 -0.459889
v -1.823840 -0.371821 0.459889
v -1.823840 0.371821 0.459889
v -1.823840 0.371821 -0.459889
vt 0.001864 0.498133
vt 0.450724 0.501867
vt 0.933670 0.998008
vt 0.001864 0.001992
vt 0.933670 0.501867
vt 0.456464 0.501867
vt 0.238590 0.498133
vt 0.244546 0.498133
vt 0.450724 0.738594
vt 0.238590 0.001992
vt 0.456464 0.738594
vt 0.244546 0.001992
vt 0.480279 0.498133
vt 0.487047 0.498133
vt 0.214991 0.738594
vt 0.480279 0.001992
vt 0.692197 0.738594
vt 0.487047 0.001992
vt 0.723773 0.498133
vt 0.697937 0.998008
vt 0.214991 0.501867
vt 0.723773 0.001992
vt 0.692197 0.501867
vt 0.697937 0.501867
vt 0.362413 0.498133
vt 0.332858 0.738594
vt 0.605410 0.001992
vt 0.692197 0.620230
vt 0.723773 0.250062
vt 0.697937 0.749938
vt 0.605410 0.498133
vt 0.214991 0.620230
vt 0.815804 0.501867
vt 0.574331 0.501867
vt 0.815804 0.998008
vt 0.332858 0.501867
vt 0.001864 0.250062
vt 0.933670 0.749938
vt 0.120227 0.001992
vt 0.456464 0.620230
vt 0.238590 0.250062
vt 0.244546 0.250062
vt 0.120227 0.498133
vt 0.450724 0.620230
vt 0.362413 0.001992
vt 0.574331 0.738594
vt 0.480279 0.250062
vt 0.487047 0.250062
vt 0.120227 0.250062
vt 0.362413 0.250062
vt 0.605410 0.250062
vt 0.815804 0.749938
vt 0.574331 0.620230
vt 0.332858 0.620230
vt 0.061045 0.374098
vt 0.061045 0.126027
vt 0.179409 0.126027
vt 0.179409 0.374098
vt 0.303479 0.374098
vt 0.303479 0.126027
vt 0.421346 0.126027
vt 0.421346 0.374098
vt 0.546228 0.374098
vt 0.546228 0.126027
vt 0.664592 0.126027
vt 0.664592 0.374098
vt 0.756870 0.873973
vt 0.756870 0.625902
vt 0.874737 0.625902
vt 0.874737 0.873973
vt 0.515397 0.561049
vt 0.633264 0.561049
vt 0.633264 0.679412
vt 0.515397 0.679412
vt 0.273925 0.561049
vt 0.391791 0.561049
vt 0.391791 0.679412
vt 0.273925 0.679412
vt 0.001864 0.374098
vt 0.933670 0.873973
vt 0.061045 0.250062
vt 0.120227 0.374098
vt 0.061045 0.498133
vt 0.450724 0.561049
vt 0.001864 0.126027
vt 0.933670 0.625902
vt 0.061045 0.001992
vt 0.456464 0.561049
vt 0.120227 0.126027
vt 0.179409 0.001992
vt 0.456464 0.679412
vt 0.238590 0.126027
vt 0.244546 0.126027
vt 0.179409 0.250062
vt 0.238590 0.374098
vt 0.244546 0.374098
vt 0.179409 0.498133
vt 0.450724 0.679412
vt 0.303479 0.250062
vt 0.362413 0.374098
vt 0.303479 0.498133
vt 0.391791 0.738594
vt 0.303479 0.001992
vt 0.515397 0.738594
vt 0.362413 0.126027
vt 0.421346 0.001992
vt 0.633264 0.738594
vt 0.480279 0.126027
vt 0.487047 0.126027
vt 0.421346 0.250062
vt 0.480279 0.374098
vt 0.487047 0.374098
vt 0.421346 0.498133
vt 0.273925 0.738594
vt 0.546228 0.250062
vt 0.605410 0.374098
vt 0.546228 0.498133
vt 0.214991 0.679412
vt 0.546228 0.001992
vt 0.692197 0.679412
vt 0.605410 0.126027
vt 0.664592 0.001992
vt 0.692197 0.561049
vt 0.723773 0.126027
vt 0.697937 0.625902
vt 0.664592 0.250062
vt 0.723773 0.374098
vt 0.697937 0.873973
vt 0.664592 0.498133
vt 0.214991 0.561049
vt 0.756870 0.749938
vt 0.815804 0.873973
vt 0.756870 0.998008
vt 0.273925 0.501867
vt 0.756870 0.501867
vt 0.633264 0.501867
vt 0.815804 0.625902
vt 0.874737 0.501867
vt 0.515397 0.501867
vt 0.874737 0.749938
vt 0.874737 0.998008
vt 0.391791 0.501867
vt 0.574331 0.561049
vt 0.515397 0.620230
vt 0.633264 0.620230
vt 0.574331 0.679412
vt 0.332858 0.561049
vt 0.273925 0.620230
vt 0.391791 0.620230
vt 0.332858 0.679412
vn -0.318205 -0.752470 0.576658
vn -0.115515 -0.810491 0.574249
vn -0.188154 -0.361726 0.913100
vn -0.473567 -0.391925 0.788752
vn 0.000000 -0.832250 0.554400
vn 0.000000 -0.376248 0.926519
vn 0.000000 -0.000000 1.000000
vn -0.219206 -0.000000 0.975679
vn -0.526596 -0.000000 0.850115
vn 0.115515 -0.810491 0.574249
vn 0.188154 -0.361726 0.913100
vn 0.318206 -0.752470 0.576658
vn 0.473567 -0.391925 0.788752
vn 0.526596 0.000000 0.850115
vn 0.219206 -0.000000 0.975679
vn 0.195940 0.410408 0.890603
vn 0.000000 0.411570 0.911378
vn 0.455549 0.446803 0.769962
vn 0.336679 0.733084 0.590962
vn 0.168955 0.765808 0.620478
vn 0.000000 0.775602 0.631222
vn -0.195940 0.410408 0.890603
vn -0.455549 0.446803 0.769962
vn -0.168955 0.765808 0.620478
vn -0.336679 0.733084 0.590962
vn -0.169025 0.943176 0.286094
vn -0.409205 0.852279 0.325841
vn -0.000000 0.958301 0.285760
vn 0.000000 1.000000 -0.000000
vn -0.178362 0.983965 0.000000
vn -0.448236 0.893915 0.000000
vn 0.169025 0.943176 0.286094
vn 0.409205 0.852279 0.325841
vn 0.448236 0.893915 0.000000
vn 0.178362 0.983965 -0.000000
vn 0.169025 0.943176 -0.286094
vn -0.000000 0.958301 -0.285760
vn 0.409205 0.852279 -0.325841
vn 0.336679 0.733084 -0.590962
vn 0.168955 0.765808 -0.620478
vn -0.000000 0.775602 -0.631222
vn -0.169025 0.943176 -0.286094
vn -0.409205 0.852279 -0.325841
vn -0.168955 0.765808 -0.620478
vn -0.336679 0.733084 -0.590962
vn -0.195940 0.410408 -0.890603
vn -0.455549 0.446803 -0.769962
vn -0.000000 0.411570 -0.911378
vn 0.000000 0.000000 -1.000000
vn -0.219206 0.000000 -0.975679
vn -0.526596 0.000000 -0.850115
vn 0.195940 0.410408 -0.890603
vn 0.455549 0.446803 -0.769962
vn 0.526596 0.000000 -0.850115
vn 0.219206 0.000000 -0.975679
vn 0.188154 -0.361726 -0.913100
vn 0.000000 -0.376248 -0.926519
vn 0.473567 -0.391925 -0.788752
vn 0.318206 -0.752470 -0.576658
vn 0.115515 -0.810491 -0.574249
vn 0.000000 -0.832250 -0.554400
vn -0.188154 -0.361726 -0.913100
vn -0.473567 -0.391925 -0.788752
vn -0.115515 -0.810491 -0.574249
vn -0.318206 -0.752470 -0.576658
vn -0.000002 -1.000000 -0.000003
vn -0.391340 -0.886700 -0.246205
vn 0.000000 -1.000000 -0.000003
vn -0.000000 -1.000000 -0.000000
vn -0.000002 -1.000000 0.000000
vn -0.401671 -0.915784 0.000000
vn 0.000002 -1.000000 -0.000003
vn 0.391340 -0.886700 -0.246205
vn 0.401671 -0.915784 -0.000000
vn 0.000002 -1.000000 0.000000
vn 0.000002 -1.000000 0.000003
vn 0.000000 -1.000000 0.000003
vn 0.391340 -0.886700 0.246205
vn -0.000002 -1.000000 0.000003
vn -0.391340 -0.886700 0.246205
vn 0.747370 -0.501397 0.435935
vn 0.831785 -0.555098 -0.000000
vn 1.000000 0.000000 -0.000000
vn 0.858341 -0.000000 0.513080
vn 0.747370 -0.501397 -0.435935
vn 0.858341 0.000000 -0.513080
vn 0.712047 0.545393 -0.442194
vn 0.805781 0.592213 0.000000
vn 0.712047 0.545393 0.442194
vn -0.747370 -0.501397 -0.435935
vn -0.831785 -0.555098 0.000000
vn -1.000000 0.000000 -0.000000
vn -0.858341 0.000000 -0.513080
vn -0.747370 -0.501397 0.435935
vn -0.858341 -0.000000 0.513080
vn -0.712047 0.545393 0.442194
vn -0.805781 0.592214 -0.000000
vn -0.712047 0.545393 -0.442194
s 1
g pCube1
usemtl initialShadingGroup
f 1/1/1 51/79/2 75/55/3 54/83/4
f 51/79/2 15/37/5 52/81/6 75/55/3
f 75/55/3 52/81/6 21/49/7 53/82/8
f 54/83/4 75/55/3 53/82/8 18/43/9
f 15/37/5 55/85/10 76/56/11 52/81/6
f 55/85/10 2/4/12 56/87/13 76/56/11
f 76/56/11 56/87/13 16/39/14 57/89/15
f 52/81/6 76/56/11 57/89/15 21/49/7
f 21/49/7 57/89/15 77/57/16 60/94/17
f 57/89/15 16/39/14 58/90/18 77/57/16
f 77/57/16 58/90/18 4/10/19 59/92/20
f 60/94/17 77/57/16 59/92/20 17/41/21
f 18/43/9 53/82/8 78/58/22 62/97/23
f 53/82/8 21/49/7 60/94/17 78/58/22
f 78/58/22 60/94/17 17/41/21 61/95/24
f 62/97/23 78/58/22 61/95/24 3/7/25
f 3/8/25 61/96/24 79/59/26 65/101/27
f 61/96/24 17/42/21 63/99/28 79/59/26
f 79/59/26 63/99/28 22/50/29 64/100/30
f 65/101/27 79/59/26 64/100/30 9/25/31
f 17/42/21 59/93/20 80/60/32 63/99/28
f 59/93/20 4/12/19 66/103/33 80/60/32
f 80/60/32 66/103/33 19/45/34 67/105/35
f 63/99/28 80/60/32 67/105/35 22/50/29
f 22/50/29 67/105/35 81/61/36 70/110/37
f 67/105/35 19/45/34 68/106/38 81/61/36
f 81/61/36 68/106/38 6/16/39 69/108/40
f 70/110/37 81/61/36 69/108/40 20/47/41
f 9/25/31 64/100/30 82/62/42 72/113/43
f 64/100/30 22/50/29 70/110/37 82/62/42
f 82/62/42 70/110/37 20/47/41 71/111/44
f 72/113/43 82/62/42 71/111/44 5/13/45
f 5/14/45 71/112/44 83/63/46 27/117/47
f 71/112/44 20/48/41 73/115/48 83/63/46
f 83/63/46 73/115/48 23/51/49 74/116/50
f 27/117/47 83/63/46 74/116/50 12/31/51
f 20/48/41 69/109/40 84/64/52 73/115/48
f 69/109/40 6/18/39 28/119/53 84/64/52
f 84/64/52 28/119/53 10/27/54 29/121/55
f 73/115/48 84/64/52 29/121/55 23/51/49
f 23/51/49 29/121/55 85/65/56 32/126/57
f 29/121/55 10/27/54 30/122/58 85/65/56
f 85/65/56 30/122/58 8/22/59 31/124/60
f 32/126/57 85/65/56 31/124/60 11/29/61
f 12/31/51 74/116/50 86/66/62 34/129/63
f 74/116/50 23/51/49 32/126/57 86/66/62
f 86/66/62 32/126/57 11/29/61 33/127/64
f 34/129/63 86/66/62 33/127/64 7/19/65
f 7/20/65 33/128/64 87/67/66 37/133/67
f 33/128/64 11/30/61 35/131/68 87/67/66
f 87/67/66 35/131/68 24/52/69 36/132/70
f 37/133/67 87/67/66 36/132/70 14/35/71
f 11/30/61 31/125/60 88/68/72 35/131/68
f 31/125/60 8/24/59 38/135/73 88/68/72
f 88/68/72 38/135/73 13/33/74 39/137/75
f 35/131/68 88/68/72 39/137/75 24/52/69
f 24/52/69 39/137/75 89/69/76 41/140/77
f 39/137/75 13/33/74 40/138/78 89/69/76
f 89/69/76 40/138/78 2/5/12 55/86/10
f 41/140/77 89/69/76 55/86/10 15/38/5
f 14/35/71 36/132/70 90/70/79 42/141/80
f 36/132/70 24/52/69 41/140/77 90/70/79
f 90/70/79 41/140/77 15/38/5 51/80/2
f 42/141/80 90/70/79 51/80/2 1/3/1
f 2/6/12 40/139/78 91/71/81 56/88/13
f 40/139/78 13/34/74 43/143/82 91/71/81
f 91/71/81 43/143/82 25/53/83 44/144/84
f 56/88/13 91/71/81 44/144/84 16/40/14
f 13/34/74 38/136/73 92/72/85 43/143/82
f 38/136/73 8/23/59 30/123/58 92/72/85
f 92/72/85 30/123/58 10/28/54 45/145/86
f 43/143/82 92/72/85 45/145/86 25/53/83
f 25/53/83 45/145/86 93/73/87 46/146/88
f 45/145/86 10/28/54 28/120/53 93/73/87
f 93/73/87 28/120/53 6/17/39 68/107/38
f 46/146/88 93/73/87 68/107/38 19/46/34
f 16/40/14 44/144/84 94/74/89 58/91/18
f 44/144/84 25/53/83 46/146/88 94/74/89
f 94/74/89 46/146/88 19/46/34 66/104/33
f 58/91/18 94/74/89 66/104/33 4/11/19
f 7/21/65 37/134/67 95/75/90 34/130/63
f 37/134/67 14/36/71 47/147/91 95/75/90
f 95/75/90 47/147/91 26/54/92 48/148/93
f 34/130/63 95/75/90 48/148/93 12/32/51
f 14/36/71 42/142/80 96/76/94 47/147/91
f 42/142/80 1/2/1 54/84/4 96/76/94
f 96/76/94 54/84/4 18/44/9 49/149/95
f 47/147/91 96/76/94 49/149/95 26/54/92
f 26/54/92 49/149/95 97/77/96 50/150/97
f 49/149/95 18/44/9 62/98/23 97/77/96
f 97/77/96 62/98/23 3/9/25 65/102/27
f 50/150/97 97/77/96 65/102/27 9/26/31
f 12/32/51 48/148/93 98/78/98 27/118/47
f 48/148/93 26/54/92 50/150/97 98/78/98
f 98/78/98 50/150/97 9/26/31 72/114/43
f 27/118/47 98/78/98 72/114/43 5/15/45
